<svg xmlns="http://www.w3.org/2000/svg" width="1200" height="760" viewBox="0 0 1200 760" role="img" aria-label="Vehicle placeholder">
  <defs>
    <linearGradient id="bg" x1="0" x2="1" y1="0" y2="1">
      <stop offset="0" stop-color="#16162a"/>
      <stop offset="0.52" stop-color="#1f2a54"/>
      <stop offset="1" stop-color="#3b2470"/>
    </linearGradient>
    <linearGradient id="car" x1="0" x2="1">
      <stop offset="0" stop-color="#e5e7eb"/>
      <stop offset="1" stop-color="#93c5fd"/>
    </linearGradient>
  </defs>
  <rect width="1200" height="760" fill="url(#bg)"/>
  <circle cx="1010" cy="130" r="180" fill="#8b5cf6" opacity=".16"/>
  <circle cx="140" cy="610" r="210" fill="#38bdf8" opacity=".14"/>
  <path d="M248 464h82l82-112c24-32 61-51 101-51h206c45 0 87 23 111 61l65 102h76c39 0 71 32 71 71v43H180v-43c0-39 30-71 68-71z" fill="url(#car)" opacity=".95"/>
  <path d="M449 454l59-80c11-15 29-24 48-24h149c23 0 45 12 58 32l45 72H449z" fill="#111827" opacity=".72"/>
  <path d="M570 350v104" stroke="#e0f2fe" stroke-width="6" opacity=".45"/>
  <circle cx="352" cy="586" r="70" fill="#0f172a"/>
  <circle cx="352" cy="586" r="34" fill="#c7d2fe"/>
  <circle cx="864" cy="586" r="70" fill="#0f172a"/>
  <circle cx="864" cy="586" r="34" fill="#c7d2fe"/>
  <path d="M236 638h726" stroke="#dbeafe" stroke-width="8" stroke-linecap="round" opacity=".28"/>
  <text x="600" y="204" fill="#f8fafc" font-family="Arial, sans-serif" font-size="54" font-weight="700" text-anchor="middle">Nexus Motors</text>
  <text x="600" y="254" fill="#c4b5fd" font-family="Arial, sans-serif" font-size="26" text-anchor="middle">Verified vehicle image</text>
</svg>
